<svg xmlns="http://www.w3.org/2000/svg" viewBox="0 0 140 110" width="140" height="110">
  <!-- OpSyncPro.io - Stacked Logo - Coral Sunset -->
  <g transform="translate(45, 5)">
    <polygon points="25,5 35,10 35,22 25,27 15,22 15,10" fill="#f97316" opacity="0.9"/>
    <polygon points="40,14 50,19 50,31 40,36 30,31 30,19" fill="#ef4444"/>
    <polygon points="25,28 35,33 35,45 25,50 15,45 15,33" fill="#fbbf24"/>
    <polygon points="40,37 50,42 50,54 40,59 30,54 30,42" fill="#f97316" opacity="0.6"/>
    <line x1="30" y1="16" x2="35" y2="22" stroke="#fff" stroke-width="1" opacity="0.5"/>
    <line x1="30" y1="27" x2="35" y2="33" stroke="#fff" stroke-width="1" opacity="0.5"/>
  </g>
  <text x="70" y="88" font-family="Inter, -apple-system, BlinkMacSystemFont, sans-serif" font-size="18" font-weight="700" fill="#18181b" text-anchor="middle">
    Op<tspan fill="#f97316">Sync</tspan>Pro
  </text>
  <text x="70" y="104" font-family="Inter, -apple-system, BlinkMacSystemFont, sans-serif" font-size="12" font-weight="400" fill="#71717a" text-anchor="middle">.io</text>
</svg>